<mxfile host="app.diagrams.net" agent="Mozilla/5.0 (Windows NT 10.0; Win64; x64) AppleWebKit/537.36 (KHTML, like Gecko) Chrome/134.0.0.0 Safari/537.36" version="26.1.1">
  <diagram name="Page-1" id="iZBnGlEoErof5XTJGH0j">
    <mxGraphModel dx="5000" dy="2291" grid="0" gridSize="10" guides="1" tooltips="1" connect="1" arrows="1" fold="1" page="0" pageScale="1" pageWidth="827" pageHeight="1169" math="0" shadow="0">
      <root>
        <mxCell id="0" />
        <mxCell id="1" parent="0" />
        <mxCell id="8wQcMrJBz7sVxB4rwxuU-3" value="JAM COMPILER" style="swimlane;labelBackgroundColor=none;fontColor=#000000;startSize=23;fontSize=17;fillColor=#4C60FF;fontFamily=Comic Sans MS;strokeWidth=3;" parent="1" vertex="1">
          <mxGeometry x="204" y="-660" width="1488" height="1344" as="geometry" />
        </mxCell>
        <mxCell id="8wQcMrJBz7sVxB4rwxuU-14" style="edgeStyle=orthogonalEdgeStyle;rounded=0;orthogonalLoop=1;jettySize=auto;html=1;curved=1;fontFamily=Comic Sans MS;strokeWidth=2;" parent="8wQcMrJBz7sVxB4rwxuU-3" source="8wQcMrJBz7sVxB4rwxuU-8" edge="1">
          <mxGeometry relative="1" as="geometry">
            <mxPoint x="170" y="218" as="targetPoint" />
            <Array as="points">
              <mxPoint x="244" y="80" />
              <mxPoint x="244" y="167" />
              <mxPoint x="170" y="167" />
            </Array>
          </mxGeometry>
        </mxCell>
        <mxCell id="8wQcMrJBz7sVxB4rwxuU-8" value="&lt;font style=&quot;font-size: 41px;&quot;&gt;Lexer&lt;/font&gt;" style="rounded=0;whiteSpace=wrap;html=1;fillColor=#C0BEFF;fontFamily=Comic Sans MS;strokeWidth=1;" parent="8wQcMrJBz7sVxB4rwxuU-3" vertex="1">
          <mxGeometry x="26" y="50" width="143" height="78" as="geometry" />
        </mxCell>
        <mxCell id="8wQcMrJBz7sVxB4rwxuU-15" value="&lt;font style=&quot;font-size: 30px;&quot;&gt;Tokens&lt;/font&gt;" style="ellipse;shape=cloud;whiteSpace=wrap;html=1;fillColor=#AC77FF;fontFamily=Comic Sans MS;strokeWidth=1;" parent="8wQcMrJBz7sVxB4rwxuU-3" vertex="1">
          <mxGeometry x="214" y="131" width="150" height="107" as="geometry" />
        </mxCell>
        <mxCell id="8wQcMrJBz7sVxB4rwxuU-29" value="&lt;font style=&quot;color: rgb(0, 0, 51); font-size: 31px;&quot;&gt;Produces Token Stream&lt;/font&gt;" style="html=1;shape=mxgraph.infographic.flag;dx=30;dy=20;fillColor=#10739E;strokeColor=none;align=center;verticalAlign=top;fontColor=#ffffff;fontSize=14;fontStyle=1;shadow=0;spacingTop=5;fontFamily=Comic Sans MS;strokeWidth=1;" parent="8wQcMrJBz7sVxB4rwxuU-3" vertex="1">
          <mxGeometry x="319" y="63" width="422" height="81" as="geometry" />
        </mxCell>
        <mxCell id="anY6mBYeTFt8FdGT_Lwn-9" value="&lt;font style=&quot;font-size: 24px;&quot;&gt;&lt;b style=&quot;&quot;&gt;JAM PARSER&lt;/b&gt;&lt;/font&gt;" style="ellipse;shape=cloud;whiteSpace=wrap;html=1;fontFamily=Comic Sans MS;fillColor=#1ba1e2;fontColor=#ffffff;strokeColor=#006EAF;strokeWidth=1;" vertex="1" parent="8wQcMrJBz7sVxB4rwxuU-3">
          <mxGeometry x="-10" y="215" width="221" height="194" as="geometry" />
        </mxCell>
        <mxCell id="anY6mBYeTFt8FdGT_Lwn-22" style="edgeStyle=orthogonalEdgeStyle;rounded=0;orthogonalLoop=1;jettySize=auto;html=1;exitX=0.5;exitY=1;exitDx=0;exitDy=0;elbow=vertical;curved=1;strokeWidth=2;" edge="1" parent="8wQcMrJBz7sVxB4rwxuU-3" source="anY6mBYeTFt8FdGT_Lwn-13">
          <mxGeometry relative="1" as="geometry">
            <mxPoint x="394" y="603" as="targetPoint" />
          </mxGeometry>
        </mxCell>
        <mxCell id="anY6mBYeTFt8FdGT_Lwn-13" value="&lt;font face=&quot;Comic Sans MS&quot; style=&quot;font-size: 22px;&quot;&gt;AST(Abstract Syntax Tree)&lt;/font&gt;" style="swimlane;whiteSpace=wrap;html=1;fillColor=#a20025;fontColor=#ffffff;strokeColor=#6F0000;strokeWidth=1;" vertex="1" parent="8wQcMrJBz7sVxB4rwxuU-3">
          <mxGeometry x="468" y="200" width="319" height="275" as="geometry" />
        </mxCell>
        <mxCell id="anY6mBYeTFt8FdGT_Lwn-2" value="&lt;font color=&quot;#3399ff&quot; style=&quot;font-size: 22px;&quot;&gt;*&lt;/font&gt;" style="whiteSpace=wrap;html=1;fillColor=#ffcc99;strokeColor=#36393d;fontFamily=Comic Sans MS;strokeWidth=1;" vertex="1" parent="anY6mBYeTFt8FdGT_Lwn-13">
          <mxGeometry x="109.5" y="69" width="100" height="40" as="geometry" />
        </mxCell>
        <mxCell id="anY6mBYeTFt8FdGT_Lwn-3" value="&lt;font style=&quot;font-size: 20px;&quot;&gt;2&lt;/font&gt;" style="whiteSpace=wrap;html=1;fillColor=#eeeeee;strokeColor=#36393d;fontFamily=Comic Sans MS;strokeWidth=1;" vertex="1" parent="anY6mBYeTFt8FdGT_Lwn-13">
          <mxGeometry x="39.5" y="159" width="100" height="40" as="geometry" />
        </mxCell>
        <mxCell id="anY6mBYeTFt8FdGT_Lwn-4" value="" style="edgeStyle=elbowEdgeStyle;elbow=vertical;html=1;rounded=1;curved=0;sourcePerimeterSpacing=0;targetPerimeterSpacing=0;startSize=6;endSize=6;fontFamily=Comic Sans MS;strokeWidth=1;" edge="1" parent="anY6mBYeTFt8FdGT_Lwn-13" source="anY6mBYeTFt8FdGT_Lwn-2" target="anY6mBYeTFt8FdGT_Lwn-3">
          <mxGeometry relative="1" as="geometry" />
        </mxCell>
        <mxCell id="anY6mBYeTFt8FdGT_Lwn-5" value="&lt;font style=&quot;font-size: 22px;&quot;&gt;3&lt;/font&gt;" style="whiteSpace=wrap;html=1;fillColor=#ffcccc;strokeColor=#36393d;fontFamily=Comic Sans MS;strokeWidth=1;" vertex="1" parent="anY6mBYeTFt8FdGT_Lwn-13">
          <mxGeometry x="179.5" y="159" width="100" height="40" as="geometry" />
        </mxCell>
        <mxCell id="anY6mBYeTFt8FdGT_Lwn-6" value="" style="edgeStyle=elbowEdgeStyle;elbow=vertical;html=1;rounded=1;curved=0;sourcePerimeterSpacing=0;targetPerimeterSpacing=0;startSize=6;endSize=6;fontFamily=Comic Sans MS;strokeWidth=1;" edge="1" parent="anY6mBYeTFt8FdGT_Lwn-13" source="anY6mBYeTFt8FdGT_Lwn-2" target="anY6mBYeTFt8FdGT_Lwn-5">
          <mxGeometry relative="1" as="geometry" />
        </mxCell>
        <mxCell id="anY6mBYeTFt8FdGT_Lwn-7" style="edgeStyle=orthogonalEdgeStyle;rounded=0;orthogonalLoop=1;jettySize=auto;html=1;curved=1;fontFamily=Comic Sans MS;strokeWidth=2;" edge="1" parent="8wQcMrJBz7sVxB4rwxuU-3" target="anY6mBYeTFt8FdGT_Lwn-13">
          <mxGeometry relative="1" as="geometry">
            <mxPoint x="178" y="456" as="targetPoint" />
            <mxPoint x="205" y="294" as="sourcePoint" />
          </mxGeometry>
        </mxCell>
        <mxCell id="anY6mBYeTFt8FdGT_Lwn-15" value="" style="verticalLabelPosition=bottom;aspect=fixed;html=1;shape=mxgraph.salesforce.manufacturing;strokeWidth=1;" vertex="1" parent="8wQcMrJBz7sVxB4rwxuU-3">
          <mxGeometry x="36" y="202" width="60" height="60" as="geometry" />
        </mxCell>
        <mxCell id="anY6mBYeTFt8FdGT_Lwn-16" value="" style="image;aspect=fixed;html=1;points=[];align=center;fontSize=12;image=img/lib/azure2/blockchain/Azure_Token_Service.svg;strokeWidth=1;" vertex="1" parent="8wQcMrJBz7sVxB4rwxuU-3">
          <mxGeometry x="151" y="25" width="59" height="68" as="geometry" />
        </mxCell>
        <mxCell id="anY6mBYeTFt8FdGT_Lwn-17" value="" style="rounded=1;whiteSpace=wrap;html=1;strokeWidth=2;fillWeight=4;hachureGap=8;hachureAngle=45;fillColor=#1ba1e2;sketch=1;" vertex="1" parent="8wQcMrJBz7sVxB4rwxuU-3">
          <mxGeometry x="210" y="638" width="376" height="115" as="geometry" />
        </mxCell>
        <mxCell id="anY6mBYeTFt8FdGT_Lwn-18" value="&lt;font face=&quot;Comic Sans MS&quot; style=&quot;font-size: 40px; color: rgb(41, 122, 255); background-color: light-dark(#ffffff, var(--ge-dark-color, #121212));&quot;&gt;Semantic Analyzer&lt;/font&gt;" style="text;html=1;align=center;verticalAlign=middle;whiteSpace=wrap;rounded=0;" vertex="1" parent="8wQcMrJBz7sVxB4rwxuU-3">
          <mxGeometry x="343" y="680.5" width="97" height="30" as="geometry" />
        </mxCell>
        <mxCell id="anY6mBYeTFt8FdGT_Lwn-59" style="edgeStyle=entityRelationEdgeStyle;rounded=0;orthogonalLoop=1;jettySize=auto;html=1;exitX=0.88;exitY=0.08;exitDx=0;exitDy=0;exitPerimeter=0;strokeWidth=2;" edge="1" parent="1" source="8wQcMrJBz7sVxB4rwxuU-5">
          <mxGeometry relative="1" as="geometry">
            <mxPoint x="-1077.7141462053569" y="-334.42851911272305" as="targetPoint" />
          </mxGeometry>
        </mxCell>
        <mxCell id="anY6mBYeTFt8FdGT_Lwn-60" style="edgeStyle=entityRelationEdgeStyle;rounded=0;orthogonalLoop=1;jettySize=auto;html=1;exitX=0.88;exitY=0.92;exitDx=0;exitDy=0;exitPerimeter=0;strokeWidth=2;" edge="1" parent="1" source="8wQcMrJBz7sVxB4rwxuU-5">
          <mxGeometry relative="1" as="geometry">
            <mxPoint x="-1070.8571079799103" y="355.85721261160734" as="targetPoint" />
          </mxGeometry>
        </mxCell>
        <mxCell id="8wQcMrJBz7sVxB4rwxuU-5" value="" style="shape=mxgraph.cisco.storage.relational_database;sketch=0;html=1;pointerEvents=1;dashed=0;fillColor=#036897;strokeColor=#ffffff;strokeWidth=1;verticalLabelPosition=bottom;verticalAlign=top;align=center;outlineConnect=0;fontFamily=Comic Sans MS;" parent="1" vertex="1">
          <mxGeometry x="-1711" y="-118" width="230" height="193" as="geometry" />
        </mxCell>
        <mxCell id="anY6mBYeTFt8FdGT_Lwn-47" style="edgeStyle=entityRelationEdgeStyle;rounded=0;orthogonalLoop=1;jettySize=auto;html=1;strokeWidth=2;exitX=1;exitY=0.5;exitDx=0;exitDy=0;exitPerimeter=0;" edge="1" parent="1" source="8wQcMrJBz7sVxB4rwxuU-5" target="anY6mBYeTFt8FdGT_Lwn-26">
          <mxGeometry relative="1" as="geometry">
            <mxPoint x="-1082.2856794084819" y="6.000000000000455" as="targetPoint" />
          </mxGeometry>
        </mxCell>
        <mxCell id="8wQcMrJBz7sVxB4rwxuU-1" value="&lt;font style=&quot;font-size: 31px;&quot;&gt;.jam files&lt;/font&gt;" style="shape=note;strokeWidth=1;fontSize=14;size=20;whiteSpace=wrap;html=1;fillColor=#fff2cc;strokeColor=#d6b656;fontColor=#666600;fontFamily=Comic Sans MS;" parent="1" vertex="1">
          <mxGeometry x="-1653" y="-58.5" width="134" height="95" as="geometry" />
        </mxCell>
        <mxCell id="anY6mBYeTFt8FdGT_Lwn-37" style="edgeStyle=entityRelationEdgeStyle;rounded=0;orthogonalLoop=1;jettySize=auto;html=1;exitX=0.86;exitY=0.85;exitDx=0;exitDy=0;exitPerimeter=0;entryX=0;entryY=0.25;entryDx=0;entryDy=0;strokeWidth=2;" edge="1" parent="1" source="8wQcMrJBz7sVxB4rwxuU-17" target="anY6mBYeTFt8FdGT_Lwn-25">
          <mxGeometry relative="1" as="geometry">
            <mxPoint x="-563.4286063058034" y="-92.14283970424094" as="targetPoint" />
          </mxGeometry>
        </mxCell>
        <mxCell id="8wQcMrJBz7sVxB4rwxuU-17" value="" style="shape=mxgraph.cisco.computers_and_peripherals.pc;sketch=0;html=1;pointerEvents=1;dashed=0;fillColor=#036897;strokeColor=#ffffff;strokeWidth=1;verticalLabelPosition=bottom;verticalAlign=top;align=center;outlineConnect=0;fontFamily=Comic Sans MS;" parent="1" vertex="1">
          <mxGeometry x="-1044" y="-427" width="133" height="115.5" as="geometry" />
        </mxCell>
        <mxCell id="anY6mBYeTFt8FdGT_Lwn-23" value="" style="verticalLabelPosition=bottom;sketch=0;html=1;fillColor=#6ABD46;strokeColor=#ffffff;verticalAlign=top;align=center;points=[[0.085,0.085,0],[0.915,0.085,0],[0.915,0.915,0],[0.085,0.915,0],[0.25,0,0],[0.5,0,0],[0.75,0,0],[1,0.25,0],[1,0.5,0],[1,0.75,0],[0.75,1,0],[0.5,1,0],[0.25,1,0],[0,0.75,0],[0,0.5,0],[0,0.25,0]];pointerEvents=1;shape=mxgraph.cisco_safe.compositeIcon;bgIcon=mxgraph.cisco_safe.architecture.generic_appliance;resIcon=mxgraph.cisco_safe.architecture.switch;" vertex="1" parent="1">
          <mxGeometry x="-216" y="-132" width="210" height="202" as="geometry" />
        </mxCell>
        <mxCell id="anY6mBYeTFt8FdGT_Lwn-25" value="" style="editableCssRules=.*;html=1;shape=image;verticalLabelPosition=bottom;labelBackgroundColor=#ffffff;verticalAlign=top;aspect=fixed;imageAspect=0;image=data:image/svg+xml,PHN2ZyB4bWxucz0iaHR0cDovL3d3dy53My5vcmcvMjAwMC9zdmciIHhtbG5zOnY9Imh0dHBzOi8vdmVjdGEuaW8vbmFubyIgd2lkdGg9IjM3NS44NTAyODQ2NDQwODg3MyIgaGVpZ2h0PSIzNTMuODA1Nzc3NDY3NzY5NyIgdmlld0JveD0iMC4yNTU5OTk1NjUxMjQ1MTE3IDAuNDI2MDAwMDI4ODQ4NjQ4MDcgOTkuNDQzNjU2OTIxMzg2NzIgOTMuNjExMDAwMDYxMDM1MTYiPiYjeGE7PHN0eWxlIHR5cGU9InRleHQvY3NzIj4mI3hhOwkuc3Qwe2ZpbGw6I2FlY2JmYTt9JiN4YTsJLnN0MXtmaWxsOiNmZmY7fSYjeGE7CS5zdDJ7ZmlsbDojNDI4NWY0O30mI3hhOwkuc3Qze2ZpbGw6IzY2OWRmNjt9JiN4YTs8L3N0eWxlPiYjeGE7CTxwYXRoIGNsYXNzPSJzdDAiIGQ9Ik04LjU0NCA3MS45MjhjLTQuODE1IDAtOC4yODgtMy44ODktOC4yODgtOC4zMjdWNy45ODNDLjI1NyA0LjY1IDQuMDcyLjQyNiA3LjQ5NS40MjZoODMuOTUyYzQuNzA1IDAgOC4yNTIgMy4zNzkgOC4yNTIgOC4xNzR2NTEuNDk1Yy4wNDcgNy41OTUtMi40NyAxMS44MzQtOS4wMTIgMTEuODM0eiIvPiYjeGE7CTxwYXRoIGNsYXNzPSJzdDEiIGQ9Ik0yOC4wNDYgNTcuMTV2LTkuOTIybDMxLjg4Mi0xMy44OTEtMzEuODgyLTEzLjY5MlY5LjI2MWw0NS44MDYgMTguOTg0djkuNzl6bTI1LjIzNSAzLjY3MXYtMTAuNTVoMjAuMDc1djEwLjU1eiIvPiYjeGE7CTxwYXRoIGNsYXNzPSJzdDIiIGQ9Ik00MC4wMyA4My41MjRWNzEuOTI4aDIwLjI5NXYxMS41OTZ6Ii8+JiN4YTsJPHBhdGggY2xhc3M9InN0MyIgZD0iTTY5Ljg3MyA4My41MjR2MTAuNTEzSDMwLjFWODMuNTI0eiIvPiYjeGE7PC9zdmc+;" vertex="1" parent="1">
          <mxGeometry x="-539" y="-95" width="134.74" height="128" as="geometry" />
        </mxCell>
        <mxCell id="anY6mBYeTFt8FdGT_Lwn-38" style="edgeStyle=elbowEdgeStyle;rounded=0;orthogonalLoop=1;jettySize=auto;html=1;elbow=vertical;strokeWidth=2;" edge="1" parent="1" source="anY6mBYeTFt8FdGT_Lwn-26" target="anY6mBYeTFt8FdGT_Lwn-25">
          <mxGeometry relative="1" as="geometry" />
        </mxCell>
        <mxCell id="anY6mBYeTFt8FdGT_Lwn-26" value="" style="shape=mxgraph.cisco.computers_and_peripherals.pc;sketch=0;html=1;pointerEvents=1;dashed=0;fillColor=#036897;strokeColor=#ffffff;strokeWidth=1;verticalLabelPosition=bottom;verticalAlign=top;align=center;outlineConnect=0;fontFamily=Comic Sans MS;" vertex="1" parent="1">
          <mxGeometry x="-1044" y="-79" width="133" height="115.5" as="geometry" />
        </mxCell>
        <mxCell id="anY6mBYeTFt8FdGT_Lwn-39" style="edgeStyle=entityRelationEdgeStyle;rounded=0;orthogonalLoop=1;jettySize=auto;html=1;exitX=0.83;exitY=0.5;exitDx=0;exitDy=0;exitPerimeter=0;elbow=vertical;entryX=0;entryY=0.75;entryDx=0;entryDy=0;strokeWidth=2;" edge="1" parent="1" source="anY6mBYeTFt8FdGT_Lwn-27" target="anY6mBYeTFt8FdGT_Lwn-25">
          <mxGeometry relative="1" as="geometry">
            <mxPoint x="-502" y="43" as="targetPoint" />
          </mxGeometry>
        </mxCell>
        <mxCell id="anY6mBYeTFt8FdGT_Lwn-27" value="" style="shape=mxgraph.cisco.computers_and_peripherals.pc;sketch=0;html=1;pointerEvents=1;dashed=0;fillColor=#036897;strokeColor=#ffffff;strokeWidth=1;verticalLabelPosition=bottom;verticalAlign=top;align=center;outlineConnect=0;fontFamily=Comic Sans MS;" vertex="1" parent="1">
          <mxGeometry x="-1044" y="279" width="133" height="115.5" as="geometry" />
        </mxCell>
        <mxCell id="anY6mBYeTFt8FdGT_Lwn-43" value="" style="shape=image;html=1;verticalAlign=top;verticalLabelPosition=bottom;labelBackgroundColor=#ffffff;imageAspect=0;aspect=fixed;image=https://cdn4.iconfinder.com/data/icons/e-commerce-icon-set/48/Info-128.png" vertex="1" parent="1">
          <mxGeometry x="-453" y="2" width="75" height="75" as="geometry" />
        </mxCell>
        <mxCell id="anY6mBYeTFt8FdGT_Lwn-44" value="&lt;font style=&quot;font-size: 34px;&quot; face=&quot;Comic Sans MS&quot;&gt;&lt;b style=&quot;&quot;&gt;Shell Editor&lt;/b&gt;&lt;/font&gt;" style="text;html=1;align=center;verticalAlign=middle;whiteSpace=wrap;rounded=0;" vertex="1" parent="1">
          <mxGeometry x="-614" y="85" width="302" height="30" as="geometry" />
        </mxCell>
        <mxCell id="anY6mBYeTFt8FdGT_Lwn-45" style="edgeStyle=orthogonalEdgeStyle;rounded=0;orthogonalLoop=1;jettySize=auto;html=1;exitX=1;exitY=0.5;exitDx=0;exitDy=0;entryX=0;entryY=0.5;entryDx=0;entryDy=0;entryPerimeter=0;strokeWidth=2;" edge="1" parent="1" source="anY6mBYeTFt8FdGT_Lwn-25" target="anY6mBYeTFt8FdGT_Lwn-23">
          <mxGeometry relative="1" as="geometry" />
        </mxCell>
        <mxCell id="anY6mBYeTFt8FdGT_Lwn-62" value="" style="strokeWidth=2;html=1;shape=mxgraph.flowchart.annotation_2;align=left;labelPosition=right;pointerEvents=1;" vertex="1" parent="1">
          <mxGeometry x="-2" y="-246" width="206" height="449" as="geometry" />
        </mxCell>
        <mxCell id="anY6mBYeTFt8FdGT_Lwn-63" value="&lt;font face=&quot;Comic Sans MS&quot; style=&quot;font-size: 40px;&quot;&gt;PC0&lt;/font&gt;" style="text;html=1;align=center;verticalAlign=middle;whiteSpace=wrap;rounded=0;" vertex="1" parent="1">
          <mxGeometry x="-1007.5" y="-287" width="60" height="30" as="geometry" />
        </mxCell>
        <mxCell id="anY6mBYeTFt8FdGT_Lwn-65" value="&lt;div style=&quot;text-align: center;&quot;&gt;&lt;span style=&quot;background-color: transparent; color: light-dark(rgb(0, 0, 0), rgb(255, 255, 255)); font-size: 40px;&quot;&gt;&lt;font face=&quot;Comic Sans MS&quot;&gt;PC1&lt;/font&gt;&lt;/span&gt;&lt;/div&gt;" style="text;whiteSpace=wrap;html=1;" vertex="1" parent="1">
          <mxGeometry x="-1034.996829427083" y="56" width="106" height="70" as="geometry" />
        </mxCell>
        <mxCell id="anY6mBYeTFt8FdGT_Lwn-66" value="&lt;span style=&quot;color: rgb(0, 0, 0); font-size: 40px; font-style: normal; font-variant-ligatures: normal; font-variant-caps: normal; font-weight: 400; letter-spacing: normal; orphans: 2; text-align: center; text-indent: 0px; text-transform: none; widows: 2; word-spacing: 0px; -webkit-text-stroke-width: 0px; white-space: normal; background-color: rgb(255, 255, 255); text-decoration-thickness: initial; text-decoration-style: initial; text-decoration-color: initial; float: none; display: inline !important;&quot;&gt;&lt;font face=&quot;Comic Sans MS&quot;&gt;PC2&lt;/font&gt;&lt;/span&gt;" style="text;whiteSpace=wrap;html=1;" vertex="1" parent="1">
          <mxGeometry x="-1034.99349609375" y="414.00333333333344" width="106" height="70" as="geometry" />
        </mxCell>
        <mxCell id="anY6mBYeTFt8FdGT_Lwn-70" value="&lt;font face=&quot;Comic Sans MS&quot; style=&quot;font-size: 34px;&quot;&gt;DATABASE&lt;/font&gt;" style="text;html=1;align=center;verticalAlign=middle;whiteSpace=wrap;rounded=0;" vertex="1" parent="1">
          <mxGeometry x="-1607" y="77" width="60" height="30" as="geometry" />
        </mxCell>
      </root>
    </mxGraphModel>
  </diagram>
</mxfile>
